<svg xmlns="http://www.w3.org/2000/svg" style="display: none;">
  <symbol id="arrow-down-tray" fill="none" viewBox="0 0 24 24" stroke-width="inherit" stroke="currentColor">
    <path stroke-linecap="round" stroke-linejoin="round" d="M3 16.5v2.25A2.25 2.25 0 0 0 5.25 21h13.5A2.25 2.25 0 0 0 21 18.75V16.5M16.5 12 12 16.5m0 0L7.5 12m4.5 4.5V3" />
  </symbol>
  <symbol id="arrow-left" fill="none" viewBox="0 0 24 24" stroke-width="inherit" stroke="currentColor">
    <path stroke-linecap="round" stroke-linejoin="round" d="M10.5 19.5 3 12m0 0 7.5-7.5M3 12h18" />
  </symbol>
  <symbol id="arrow-right" fill="none" viewBox="0 0 24 24" stroke-width="inherit" stroke="currentColor">
    <path stroke-linecap="round" stroke-linejoin="round" d="M13.5 4.5 21 12m0 0-7.5 7.5M21 12H3" />
  </symbol>
  <symbol id="arrows-right-left" fill="none" viewBox="0 0 24 24" stroke-width="inherit" stroke="currentColor">
    <path stroke-linecap="round" stroke-linejoin="round" d="M7.5 21 3 16.5m0 0L7.5 12M3 16.5h13.5m0-13.5L21 7.5m0 0L16.5 12M21 7.5H7.5" />
  </symbol>
  <symbol id="arrows-up-down" fill="none" viewBox="0 0 24 24" stroke-width="inherit" stroke="currentColor">
    <path stroke-linecap="round" stroke-linejoin="round" d="M8.25 6.75 12 3m0 0 3.75 3.75M12 3v18" />
    <path strokeLinecap="round" strokeLinejoin="round" d="M15.75 17.25 12 21m0 0-3.75-3.75M12 21V3" />
  </symbol>
  <symbol id="bell" fill="none" viewBox="0 0 24 24" stroke-width="inherit" stroke="currentColor">
    <path stroke-linecap="round" stroke-linejoin="round" d="M14.857 17.082a23.848 23.848 0 0 0 5.454-1.31A8.967 8.967 0 0 1 18 9.75V9A6 6 0 0 0 6 9v.75a8.967 8.967 0 0 1-2.312 6.022c1.733.64 3.56 1.085 5.455 1.31m5.714 0a24.255 24.255 0 0 1-5.714 0m5.714 0a3 3 0 1 1-5.714 0" />
  </symbol>
  <symbol id="calculator" fill="none" viewBox="0 0 24 24" stroke-width="1.5" stroke="currentColor">
    <path stroke-linecap="round" stroke-linejoin="round" d="M15.75 15.75V18m-7.5-6.75h.008v.008H8.25v-.008Zm0 2.25h.008v.008H8.25V13.5Zm0 2.25h.008v.008H8.25v-.008Zm0 2.25h.008v.008H8.25V18Zm2.498-6.75h.007v.008h-.007v-.008Zm0 2.25h.007v.008h-.007V13.5Zm0 2.25h.007v.008h-.007v-.008Zm0 2.25h.007v.008h-.007V18Zm2.504-6.75h.008v.008h-.008v-.008Zm0 2.25h.008v.008h-.008V13.5Zm0 2.25h.008v.008h-.008v-.008Zm0 2.25h.008v.008h-.008V18Zm2.498-6.75h.008v.008h-.008v-.008Zm0 2.25h.008v.008h-.008V13.5ZM8.25 6h7.5v2.25h-7.5V6ZM12 2.25c-1.892 0-3.758.11-5.593.322C5.307 2.7 4.5 3.65 4.5 4.757V19.5a2.25 2.25 0 0 0 2.25 2.25h10.5a2.25 2.25 0 0 0 2.25-2.25V4.757c0-1.108-.806-2.057-1.907-2.185A48.507 48.507 0 0 0 12 2.25Z" />
  </symbol>
  <symbol id="calendar" fill="none" viewBox="0 0 24 24" stroke-width="inherit" stroke="currentColor">
    <path stroke-linecap="round" stroke-linejoin="round" d="M6.75 3v2.25M17.25 3v2.25M3 18.75V7.5a2.25 2.25 0 0 1 2.25-2.25h13.5A2.25 2.25 0 0 1 21 7.5v11.25m-18 0A2.25 2.25 0 0 0 5.25 21h13.5A2.25 2.25 0 0 0 21 18.75m-18 0v-7.5A2.25 2.25 0 0 1 5.25 9h13.5A2.25 2.25 0 0 1 21 11.25v7.5" />
  </symbol>
  <symbol id="chat-bubble-oval-left" fill="none" viewBox="0 0 24 24" stroke-width="inherit" stroke="currentColor">
    <path stroke-linecap="round" stroke-linejoin="round" d="M20.25 8.511c.884.284 1.5 1.128 1.5 2.097v4.286c0 1.136-.847 2.1-1.98 2.193-.34.027-.68.052-1.02.072v3.091l-3-3c-1.354 0-2.694-.055-4.02-.163a2.115 2.115 0 0 1-.825-.242m9.345-8.334a2.126 2.126 0 0 0-.476-.095 48.64 48.64 0 0 0-8.048 0c-1.131.094-1.976 1.057-1.976 2.192v4.286c0 .837.46 1.58 1.155 1.951m9.345-8.334V6.637c0-1.621-1.152-3.026-2.76-3.235A48.455 48.455 0 0 0 11.25 3c-2.115 0-4.198.137-6.24.402-1.608.209-2.76 1.614-2.76 3.235v6.226c0 1.621 1.152 3.026 2.76 3.235.577.075 1.157.14 1.74.194V21l4.155-4.155" />
  </symbol>
  <symbol id="check" fill="none" viewBox="0 0 24 24" stroke-width="inherit" stroke="currentColor">
      <path stroke-linecap="round" stroke-linejoin="round" d="m4.5 12.75 6 6 9-13.5" />
  </symbol>
  <symbol id="chevron-down" fill="none" viewBox="0 0 24 24" stroke-width="inherit" stroke="currentColor">
    <path stroke-linecap="round" stroke-linejoin="round" d="m19.5 8.25-7.5 7.5-7.5-7.5" />
  </symbol>
  <symbol id="chevron-left" fill="none" viewBox="0 0 24 24" stroke-width="inherit" stroke="currentColor">
    <path stroke-linecap="round" stroke-linejoin="round" d="M15.75 19.5 8.25 12l7.5-7.5" />
  </symbol>
  <symbol id="chevron-right" fill="none" viewBox="0 0 24 24" stroke-width="inherit" stroke="currentColor">
    <path stroke-linecap="round" stroke-linejoin="round" d="m8.25 4.5 7.5 7.5-7.5 7.5" />
  </symbol>
  <symbol id="circle-check" fill="none" viewBox="0 0 24 24" stroke-width="inherit" stroke="currentColor">
    <path stroke-linecap="round" stroke-linejoin="round" d="M9 12.75 11.25 15 15 9.75M21 12a9 9 0 1 1-18 0 9 9 0 0 1 18 0Z" />
  </symbol>
  <symbol id="circle" fill="none" viewBox="0 0 24 24" stroke-width="inherit" stroke="currentColor">
    <path stroke-linecap="round" stroke-linejoin="round" d="M21 12a9 9 0 1 1-18 0 9 9 0 0 1 18 0Z" />
  </symbol>
  <symbol id="clipboard-copy" fill="none" viewBox="0 0 24 24" stroke-width="inherit" stroke="currentColor">
    <path stroke-linecap="round" stroke-linejoin="round" d="M8.25 7.5V6.108c0-1.135.845-2.098 1.976-2.192.373-.03.748-.057 1.123-.08M15.75 18H18a2.25 2.25 0 0 0 2.25-2.25V6.108c0-1.135-.845-2.098-1.976-2.192a48.424 48.424 0 0 0-1.123-.08M15.75 18.75v-1.875a3.375 3.375 0 0 0-3.375-3.375h-1.5a1.125 1.125 0 0 1-1.125-1.125v-1.5A3.375 3.375 0 0 0 6.375 7.5H5.25m11.9-3.664A2.251 2.251 0 0 0 15 2.25h-1.5a2.251 2.251 0 0 0-2.15 1.586m5.8 0c.065.21.1.433.1.664v.75h-6V4.5c0-.231.035-.454.1-.664M6.75 7.5H4.875c-.621 0-1.125.504-1.125 1.125v12c0 .621.504 1.125 1.125 1.125h9.75c.621 0 1.125-.504 1.125-1.125V16.5a9 9 0 0 0-9-9Z" />
  </symbol>
  <symbol id="cog-6" fill="none" viewBox="0 0 24 24" stroke-width="inherit" stroke="currentColor">
    <path stroke-linecap="round" stroke-linejoin="round" d="M9.594 3.94c.09-.542.56-.94 1.11-.94h2.593c.55 0 1.02.398 1.11.94l.213 1.281c.063.374.313.686.645.87.074.04.147.083.22.127.325.196.72.257 1.075.124l1.217-.456a1.125 1.125 0 0 1 1.37.49l1.296 2.247a1.125 1.125 0 0 1-.26 1.431l-1.003.827c-.293.241-.438.613-.43.992a7.723 7.723 0 0 1 0 .255c-.008.378.137.75.43.991l1.004.827c.424.35.534.955.26 1.43l-1.298 2.247a1.125 1.125 0 0 1-1.369.491l-1.217-.456c-.355-.133-.75-.072-1.076.124a6.47 6.47 0 0 1-.22.128c-.331.183-.581.495-.644.869l-.213 1.281c-.09.543-.56.94-1.11.94h-2.594c-.55 0-1.019-.398-1.11-.94l-.213-1.281c-.062-.374-.312-.686-.644-.87a6.52 6.52 0 0 1-.22-.127c-.325-.196-.72-.257-1.076-.124l-1.217.456a1.125 1.125 0 0 1-1.369-.49l-1.297-2.247a1.125 1.125 0 0 1 .26-1.431l1.004-.827c.292-.24.437-.613.43-.991a6.932 6.932 0 0 1 0-.255c.007-.38-.138-.751-.43-.992l-1.004-.827a1.125 1.125 0 0 1-.26-1.43l1.297-2.247a1.125 1.125 0 0 1 1.37-.491l1.216.456c.356.133.751.072 1.076-.124.072-.044.146-.086.22-.128.332-.183.582-.495.644-.869l.214-1.28Z" />
    <path stroke-linecap="round" stroke-linejoin="round" d="M15 12a3 3 0 1 1-6 0 3 3 0 0 1 6 0Z" />
  </symbol>
  <symbol id="exclamation-mark" fill="none" viewBox="0 0 24 24" stroke-width="inherit" stroke="currentColor">
    <path stroke-linecap="round" stroke-linejoin="round" d="M12 4v11" />
    <path stroke-linecap="round" stroke-linejoin="round" d="M12 20h.01" />
  </symbol>
  <symbol id="exclamation-triangle" fill="none" viewBox="0 0 24 24" stroke-width="inherit" stroke="currentColor">
    <path stroke-linecap="round" stroke-linejoin="round" d="M12 9v3.75m-9.303 3.376c-.866 1.5.217 3.374 1.948 3.374h14.71c1.73 0 2.813-1.874 1.948-3.374L13.949 3.378c-.866-1.5-3.032-1.5-3.898 0L2.697 16.126ZM12 15.75h.007v.008H12v-.008Z" />
  </symbol>
  <symbol id="eye" fill="none" viewBox="0 0 24 24" stroke-width="inherit" stroke="currentColor">
    <path stroke-linecap="round" stroke-linejoin="round" d="M2.036 12.322a1.012 1.012 0 0 1 0-.639C3.423 7.51 7.36 4.5 12 4.5c4.638 0 8.573 3.007 9.963 7.178.07.207.07.431 0 .639C20.577 16.49 16.64 19.5 12 19.5c-4.638 0-8.573-3.007-9.963-7.178Z" />
    <path stroke-linecap="round" stroke-linejoin="round" d="M15 12a3 3 0 1 1-6 0 3 3 0 0 1 6 0Z" />
  </symbol>
  <symbol id="information-circle" fill="none" viewBox="0 0 24 24" stroke-width="inherit" stroke="currentColor">
    <path fill-rule="evenodd" d="M2.25 12c0-5.385 4.365-9.75 9.75-9.75s9.75 4.365 9.75 9.75-4.365 9.75-9.75 9.75S2.25 17.385 2.25 12Zm8.706-1.442c1.146-.573 2.437.463 2.126 1.706l-.709 2.836.042-.02a.75.75 0 0 1 .67 1.34l-.04.022c-1.147.573-2.438-.463-2.127-1.706l.71-2.836-.042.02a.75.75 0 1 1-.671-1.34l.041-.022ZM12 9a.75.75 0 1 0 0-1.5.75.75 0 0 0 0 1.5Z" clip-rule="evenodd" />
  </symbol>
  <symbol id="link" fill="none" viewBox="0 0 24 24" stroke-width="inherit" stroke="currentColor">
    <path stroke-linecap="round" stroke-linejoin="round" d="M13.19 8.688a4.5 4.5 0 0 1 1.242 7.244l-4.5 4.5a4.5 4.5 0 0 1-6.364-6.364l1.757-1.757m13.35-.622 1.757-1.757a4.5 4.5 0 0 0-6.364-6.364l-4.5 4.5a4.5 4.5 0 0 0 1.242 7.244" />
  </symbol>
  <symbol id="link-slash" fill="none" viewBox="0 0 24 24" stroke-width="inherit" stroke="currentColor">
    <path stroke-linecap="round" stroke-linejoin="round" d="M13.181 8.68a4.503 4.503 0 0 1 1.903 6.405m-9.768-2.782L3.56 14.06a4.5 4.5 0 0 0 6.364 6.365l3.129-3.129m5.614-5.615 1.757-1.757a4.5 4.5 0 0 0-6.364-6.365l-4.5 4.5c-.258.26-.479.541-.661.84m1.903 6.405a4.495 4.495 0 0 1-1.242-.88 4.483 4.483 0 0 1-1.062-1.683m6.587 2.345 5.907 5.907m-5.907-5.907L8.898 8.898M2.991 2.99 8.898 8.9" />
  </symbol>
  <symbol id="lock-closed" fill="none" viewBox="0 0 24 24" stroke-width="inherit" stroke="currentColor">
    <path stroke-linecap="round" stroke-linejoin="round" d="M16.5 10.5V6.75a4.5 4.5 0 1 0-9 0v3.75m-.75 11.25h10.5a2.25 2.25 0 0 0 2.25-2.25v-6.75a2.25 2.25 0 0 0-2.25-2.25H6.75a2.25 2.25 0 0 0-2.25 2.25v6.75a2.25 2.25 0 0 0 2.25 2.25Z" />
  </symbol>
  <symbol id="key" fill="none" viewBox="0 0 24 24" stroke-width="inherit" stroke="currentColor">
    <path stroke-linecap="round" stroke-linejoin="round" d="M15.75 5.25a3 3 0 0 1 3 3m3 0a6 6 0 0 1-7.029 5.912c-.563-.097-1.159.026-1.563.43L10.5 17.25H8.25v2.25H6v2.25H2.25v-2.818c0-.597.237-1.17.659-1.591l6.499-6.499c.404-.404.527-1 .43-1.563A6 6 0 1 1 21.75 8.25Z" />
  </symbol>
  <symbol id="minus" fill="none" viewBox="0 0 24 24" stroke-width="inherit" stroke="currentColor">
     <path stroke-linecap="round" stroke-linejoin="round" d="M5 12h14" />
  </symbol>
  <symbol id="minus-circle" fill="none" viewBox="0 0 24 24" stroke-width="inherit" stroke="currentColor">
     <path stroke-linecap="round" stroke-linejoin="round" d="M15 12H9m12 0a9 9 0 1 1-18 0 9 9 0 0 1 18 0Z" />
  </symbol>
  <symbol id="pencil-square" fill="none" viewBox="0 0 24 24" stroke-width="inherit" stroke="currentColor">
     <path stroke-linecap="round" stroke-linejoin="round" d="m16.862 4.487 1.687-1.688a1.875 1.875 0 1 1 2.652 2.652L10.582 16.07a4.5 4.5 0 0 1-1.897 1.13L6 18l.8-2.685a4.5 4.5 0 0 1 1.13-1.897l8.932-8.931Zm0 0L19.5 7.125M18 14v4.75A2.25 2.25 0 0 1 15.75 21H5.25A2.25 2.25 0 0 1 3 18.75V8.25A2.25 2.25 0 0 1 5.25 6H10" />
  </symbol>
  <symbol id="question-mark" fill="none" viewBox="0 0 24 24" stroke-width="inherit" stroke="currentColor">
    <path stroke-linecap="round" stroke-linejoin="round" d="M9.879 6.519c1.171-1.025 3.071-1.025 4.242 0 1.172 1.025 1.172 2.687 0 3.712-.203.179-.43.326-.67.442-.745.361-1.45.999-1.45 1.827v.75 M12 17.25h.008v.008H12v-.008Z" />
  </symbol>
  <symbol id="plus" fill="none" viewBox="0 0 24 24" stroke-width="inherit" stroke="currentColor">
    <path stroke-linecap="round" stroke-linejoin="round" d="M12 4.5v15m7.5-7.5h-15" />
  </symbol>
  <symbol id="qr-code" fill="none" viewBox="0 0 24 24" stroke-width="inherit" stroke="currentColor">
    <path stroke-linecap="round" stroke-linejoin="round" d="M3.75 4.875c0-.621.504-1.125 1.125-1.125h4.5c.621 0 1.125.504 1.125 1.125v4.5c0 .621-.504 1.125-1.125 1.125h-4.5A1.125 1.125 0 0 1 3.75 9.375v-4.5ZM3.75 14.625c0-.621.504-1.125 1.125-1.125h4.5c.621 0 1.125.504 1.125 1.125v4.5c0 .621-.504 1.125-1.125 1.125h-4.5a1.125 1.125 0 0 1-1.125-1.125v-4.5ZM13.5 4.875c0-.621.504-1.125 1.125-1.125h4.5c.621 0 1.125.504 1.125 1.125v4.5c0 .621-.504 1.125-1.125 1.125h-4.5A1.125 1.125 0 0 1 13.5 9.375v-4.5Z" />
    <path stroke-linecap="round" stroke-linejoin="round" d="M6.75 6.75h.75v.75h-.75v-.75ZM6.75 16.5h.75v.75h-.75v-.75ZM16.5 6.75h.75v.75h-.75v-.75ZM13.5 13.5h.75v.75h-.75v-.75ZM13.5 19.5h.75v.75h-.75v-.75ZM19.5 13.5h.75v.75h-.75v-.75ZM19.5 19.5h.75v.75h-.75v-.75ZM16.5 16.5h.75v.75h-.75v-.75Z" />
  </symbol>
  <symbol id="tariff-dynamic" fill="none" viewBox="0 0 24 24" stroke-width="0" stroke="currentColor">
    <g transform="translate(0 -1.539)">
      <g transform="translate(0 11.509)">
        <rect width="4" height="7" rx="1" transform="translate(11.832 4)" fill="currentColor" />
        <rect width="4" height="6" rx="1" transform="translate(1.832 5)" fill="currentColor" />
        <rect width="4" height="10" rx="1" transform="translate(6.832 1)" fill="currentColor" />
        <rect width="4" height="11" rx="1" transform="translate(16.832)" fill="currentColor" />
        <rect width="1.5" height="23" rx="0.75" transform="translate(23 12.556) rotate(90)" fill="currentColor"/>
      </g>
      <g transform="translate(1.133)">
        <path stroke-linecap="round" stroke-linejoin="round" d="M-11594.876-10711.134a1,1,0,0,1,.279-1.388l6.472-4.318a1,1,0,0,1,1.173.044l4.871,3.82,4.275-3.594h-1.749a1,1,0,0,1-1-1,1,1,0,0,1,1-1h4.033a1,1,0,0,1,.707.291,1,1,0,0,1,.294.707v4.033a1,1,0,0,1-1,1,1,1,0,0,1-1-1v-1.5l-4.895,4.114a1,1,0,0,1-1.26.023l-4.941-3.873-5.872,3.916a.987.987,0,0,1-.553.169A1.007,1.007,0,0,1-11594.876-10711.134Z" transform="translate(11595.043 10721)" fill="currentColor" />
      </g>
    </g>
  </symbol>
  <symbol id="tariff-static" fill="none" viewBox="0 0 24 24" stroke-width="0" stroke="currentColor">
    <g transform="translate(0.5 7.445)">
      <path stroke-linecap="round" stroke-linejoin="round" d="M1,0H3A1,1,0,0,1,4,1V8A1,1,0,0,1,3,9H1A1,1,0,0,1,0,8V1A1,1,0,0,1,1,0Z" transform="translate(6.832 4.5)" fill="currentColor" />
      <path stroke-linecap="round" stroke-linejoin="round" d="M1,0H3A1,1,0,0,1,4,1V8A1,1,0,0,1,3,9H1A1,1,0,0,1,0,8V1A1,1,0,0,1,1,0Z" transform="translate(11.832 4.5)" fill="currentColor" />
      <path stroke-linecap="round" stroke-linejoin="round" d="M1,0H3A1,1,0,0,1,4,1V8A1,1,0,0,1,3,9H1A1,1,0,0,1,0,8V1A1,1,0,0,1,1,0Z" transform="translate(16.832 4.5)" fill="currentColor" />
      <path stroke-linecap="round" stroke-linejoin="round" d="M.75,0A.75.75,0,0,1,1.5.75v21.5a.75.75,0,0,1-1.5,0V.75A.75.75,0,0,1,.75,0Z" transform="translate(23 15.055) rotate(90)" fill="currentColor" />
      <path stroke-linecap="round" stroke-linejoin="round" d="M1,0H3A1,1,0,0,1,4,1V8A1,1,0,0,1,3,9H1A1,1,0,0,1,0,8V1A1,1,0,0,1,1,0Z" transform="translate(1.832 4.5)" fill="currentColor" />
      <path stroke-linecap="round" stroke-linejoin="round" d="M21,1H20a1,1,0,0,1-1-1,1,1,0,0,1,1-1h1a1,1,0,0,1,1,1A1,1,0,0,1,21,1ZM17,1H16a1,1,0,0,1-1-1,1,1,0,0,1,1-1h1a1,1,0,0,1,1,1A1,1,0,0,1,17,1ZM13,1H12a1,1,0,0,1-1-1,1,1,0,0,1,1-1h1a1,1,0,0,1,1,1A1,1,0,0,1,13,1ZM9,1H8A1,1,0,0,1,7,0,1,1,0,0,1,8-1H9a1,1,0,0,1,1,1A1,1,0,0,1,9,1ZM5,1H4A1,1,0,0,1,3,0,1,1,0,0,1,4-1H5A1,1,0,0,1,6,0,1,1,0,0,1,5,1ZM1,1H0A1,1,0,0,1-1,0,1,1,0,0,1,0-1H1A1,1,0,0,1,2,0,1,1,0,0,1,1,1Z" transform="translate(1 1)" fill="currentColor" />
    </g>
  </symbol>
  <symbol id="tariff-variable" fill="none" viewBox="0 0 24 24" stroke-width="0" stroke="currentColor">
    <g transform="translate(0.5 2.971)">
      <rect  width="4" height="5" rx="1" transform="translate(6.832 13)" fill="currentColor" />
      <rect width="4" height="10" rx="1" transform="translate(11.832 8)" fill="currentColor" />
      <rect width="4" height="18" rx="1" transform="translate(16.832)" fill="currentColor" />
      <rect width="1.5" height="23" rx="0.75" transform="translate(23 19.556) rotate(90)" fill="currentColor" />
      <rect width="4" height="6" rx="1" transform="translate(1.832 12)" fill="currentColor" />
      <path stroke-linecap="round" stroke-linejoin="round" d="M-11532.146-10717.292l-2.852-2.852a1,1,0,0,1,0-1.416,1,1,0,0,1,1.416,0l1.135,1.135v-5.075a1,1,0,0,1,1-1,1,1,0,0,1,1,1v5.094l1.152-1.153a1,1,0,0,1,1.416,0,1,1,0,0,1,0,1.416l-2.852,2.852a1.009,1.009,0,0,1-.707.292A1.01,1.01,0,0,1-11532.146-10717.292Z" transform="translate(11538.441 10727.029)" fill="currentColor" />
    </g>
  </symbol>
  <symbol id="trash" fill="none" viewBox="0 0 24 24" stroke-width="inherit" stroke="currentColor">
    <path stroke-linecap="round" stroke-linejoin="round" d="m14.74 9-.346 9m-4.788 0L9.26 9m9.968-3.21c.342.052.682.107 1.022.166m-1.022-.165L18.16 19.673a2.25 2.25 0 0 1-2.244 2.077H8.084a2.25 2.25 0 0 1-2.244-2.077L4.772 5.79m14.456 0a48.108 48.108 0 0 0-3.478-.397m-12 .562c.34-.059.68-.114 1.022-.165m0 0a48.11 48.11 0 0 1 3.478-.397m7.5 0v-.916c0-1.18-.91-2.164-2.09-2.201a51.964 51.964 0 0 0-3.32 0c-1.18.037-2.09 1.022-2.09 2.201v.916m7.5 0a48.667 48.667 0 0 0-7.5 0" />
  </symbol>
  <symbol id="user" fill="none" viewBox="0 0 24 24" stroke-width="inherit" stroke="currentColor">
    <path stroke-linecap="round" stroke-linejoin="round" d="M15.75 6a3.75 3.75 0 1 1-7.5 0 3.75 3.75 0 0 1 7.5 0ZM4.501 20.118a7.5 7.5 0 0 1 14.998 0A17.933 17.933 0 0 1 12 21.75c-2.676 0-5.216-.584-7.499-1.632Z" />
  </symbol>
  <symbol id="world" fill="none" viewBox="0 0 24 24" stroke-width="inherit" stroke="currentColor">
    <path strokeLinecap="round" strokeLinejoin="round" d="M12 21a9.004 9.004 0 0 0 8.716-6.747M12 21a9.004 9.004 0 0 1-8.716-6.747M12 21c2.485 0 4.5-4.03 4.5-9S14.485 3 12 3m0 18c-2.485 0-4.5-4.03-4.5-9S9.515 3 12 3m0 0a8.997 8.997 0 0 1 7.843 4.582M12 3a8.997 8.997 0 0 0-7.843 4.582m15.686 0A11.953 11.953 0 0 1 12 10.5c-2.998 0-5.74-1.1-7.843-2.918m15.686 0A8.959 8.959 0 0 1 21 12c0 .778-.099 1.533-.284 2.253m0 0A17.919 17.919 0 0 1 12 16.5c-3.162 0-6.133-.815-8.716-2.247m0 0A9.015 9.015 0 0 1 3 12c0-1.605.42-3.113 1.157-4.418" />
  </symbol>
  <symbol id="x-circle" fill="none" viewBox="0 0 24 24" stroke-width="inherit" stroke="currentColor">
    <path stroke-linecap="round" stroke-linejoin="round" d="m9.75 9.75 4.5 4.5m0-4.5-4.5 4.5M21 12a9 9 0 1 1-18 0 9 9 0 0 1 18 0Z" />
  </symbol>
  <symbol id="x-mark" fill="none" viewBox="0 0 24 24" stroke-width="inherit" stroke="currentColor">
    <path stroke-linecap="round" stroke-linejoin="round" d="M6 18 18 6M6 6l12 12" />
  </symbol>
  <symbol id="bars-3" fill="none" viewBox="0 0 24 24" stroke-width="inherit" stroke="currentColor">
    <path stroke-linecap="round" stroke-linejoin="round" d="M3.75 6.75h16.5M3.75 12h16.5m-16.5 5.25h16.5" />
  </symbol>
</svg>
